<svg width="334" height="383" viewBox="0 0 334 383" fill="none" xmlns="http://www.w3.org/2000/svg">
<path d="M120.497 44.1124C124.592 26.5734 126.426 1.09992 150.826 0.0189247C153.457 -0.0975753 156.356 0.338925 158.937 0.912525C186.408 10.0433 211.991 26.2094 231.678 47.4774C233.866 49.8364 245.138 53.3354 248.463 55.5734C264.246 64.3294 280.297 79.6084 289.308 95.3124C311.461 133.913 309.649 168.854 301.687 210.329C317.093 231.805 336.89 256.878 333.332 284.883C330.765 305.087 306.741 316.294 289.128 307.659C279.336 302.859 273.983 296.86 267.742 288.292C258.996 298.476 248.482 308.476 236.855 315.34C251.594 327.146 284.672 346.873 266.57 368.671C259.194 377.553 250.139 381.608 238.812 382.697C238.064 382.769 237.316 382.835 236.567 382.897L235.989 382.936C212.213 379.705 190.098 365.391 169.965 352.359C151.382 364.263 132.163 377.143 109.749 380.701C92.3838 383.458 66.9818 370.329 72.1088 349.715C75.3338 336.75 91.8338 323.71 102.484 315.793C89.2438 306.955 78.8339 297.368 68.5339 285.231C60.9929 296.497 52.0458 306.157 38.0408 309.038C29.5228 310.785 20.6608 309.075 13.4058 304.285C-11.3218 287.857 3.13284 249.693 17.1168 230.607C23.0128 222.562 29.7868 214.311 36.9558 207.376C22.4938 132.939 39.7208 64.9664 120.497 44.1124Z" fill="#0F4A5C"/>
<path d="M39.7456 158.973C39.4906 130.187 50.0716 100.99 70.3126 80.1874C98.5026 51.2154 137.565 47.0044 175.838 45.7544C244.631 43.5074 298.532 88.1564 299.939 158.997C299.946 178.398 297.969 190.621 294.729 209.643L294.977 210.169C304.656 230.283 333.943 261.221 325.367 286.822C323.271 293.095 318.741 298.263 312.796 301.166C295.877 309.302 279.827 295.112 272.326 281.245C271.607 279.915 269.073 275.644 268.113 274.731C258.833 287.68 250.998 296.754 238.049 305.973C213.001 324.106 181.755 331.504 151.233 326.527C112.837 319.951 87.2446 298.917 65.3476 267.955C64.9316 272.907 65.1726 274.757 63.1316 279.441C56.3646 295.23 37.6686 307.673 20.6436 299.786C6.98657 293.459 5.81657 280.354 8.52457 267.154C12.5916 247.332 24.6606 232.46 37.1146 217.232C39.3606 214.487 41.5874 212.827 43.5874 209.327L44.0874 208.327C43.5874 205.827 40.7966 184.247 40.4296 179.444C39.8736 172.148 39.6356 166.668 39.7456 158.973Z" fill="#49E2EA"/>
<path d="M39.7447 158.973C39.4897 130.187 50.0707 100.99 70.3117 80.1874C98.5017 51.2154 137.564 47.0044 175.837 45.7544C244.63 43.5074 298.531 88.1564 299.938 158.997C291.755 153.832 286.947 153.743 277.66 155.241C264.231 189.069 240.266 198.459 206.246 188.357C189.983 217.051 154.007 215.67 138.125 186.863C114.267 195.946 91.1837 192.172 75.0527 171.323C64.7177 157.966 60.7007 149.684 41.5167 153.221C39.9357 154.644 40.1737 156.391 39.7447 158.973Z" fill="#13BFD7"/>
<path d="M220.779 67.5194C227.916 68.1174 246.574 72.1904 244.295 82.4894C239.328 85.3484 231.64 77.7124 226.825 76.7134C221.638 75.6374 217.41 79.7934 212.882 75.2754C212.54 72.6604 212.643 72.4204 214.249 69.5594L220.779 67.5194Z" fill="#0A8BA4"/>
<path d="M114.989 67.3274C119.558 67.3934 125.457 67.1234 127.142 72.3464C124.243 78.7764 115.171 73.7624 106.099 79.6254L105.404 80.0794C102.913 81.8884 101.256 83.3224 98.1799 83.6674C95.9409 83.0424 96.7459 83.6824 95.5869 81.8154C95.6479 72.8924 107.802 68.5144 114.989 67.3274Z" fill="#0A8BA4"/>
<path d="M152.369 182.644C161.83 186.69 170.379 190.574 180.973 188.695C184.843 188.008 191.242 183.259 194.638 184.473C194.567 186.804 193.201 188.57 191.987 190.667C179.659 202.702 146.976 199.995 152.369 182.644Z" fill="#0A8BA4"/>
<path d="M133.138 58.1984C137.223 57.6694 140.624 57.0974 143.553 60.3324C143.654 63.3684 143.677 62.3224 141.896 65.5674C138.22 65.6414 134.278 66.1724 131.861 62.9374C131.543 60.1244 131.548 61.1184 133.138 58.1984Z" fill="#49E2EA"/>
<path d="M222.457 86.8064C232.268 85.6704 243.402 89.0164 251.496 94.6184C280.493 114.684 279.659 168.547 246.826 184.457C241.681 186.95 237.164 187.668 231.577 188.524C230.108 188.598 228.637 188.598 227.168 188.524C195.316 186.985 214.724 171.035 188.605 170.64C175.754 145.357 174.455 114.042 199.854 95.0214C206.506 90.0394 214.302 87.9804 222.457 86.8064Z" fill="#F8FAFA"/>
<path d="M205.517 115.949C233.516 113.568 237.612 155.485 213.613 164.636C192.569 166.039 186.609 145.283 192.49 128.113C194.697 121.669 199.429 118.48 205.517 115.949Z" fill="#0F4A5C"/>
<path d="M115.87 86.0884C146.592 83.7794 167.045 114.293 164.071 142.261C162.816 154.059 161.094 159.913 156.065 170.4C144.575 169.536 141.019 172.612 137.165 183.107C131.505 185.299 127.821 186.392 121.881 187.424C59.3654 192.423 52.5514 93.3314 115.87 86.0884Z" fill="#F8FAFA"/>
<path d="M134.063 115.985C159.984 117.935 160.674 157.589 136.491 165.582C108.831 165.406 106.644 121.477 134.063 115.985Z" fill="#0F4A5C"/>
<path d="M138.229 125.351C139.729 124.632 141.501 124.785 142.856 125.75C144.21 126.716 144.933 128.341 144.742 129.993C144.551 131.645 143.478 133.063 141.939 133.695C139.652 134.633 137.033 133.583 136.029 131.325C135.025 129.067 136 126.419 138.229 125.351Z" fill="#F8FAFA"/>
<path d="M129.304 42.1914C130.812 25.3164 134.761 6.43923 155.588 8.01653C157.3 8.43873 160.223 9.05853 161.789 9.59453C169.256 12.7188 186.676 21.0144 192.734 26.0064C194.292 26.7404 197.696 28.1964 198.907 29.1404C204.923 32.8914 209.351 37.2124 214.935 41.4954C210.918 40.8014 206.221 39.8624 202.23 39.3804C199.575 39.3924 198.538 39.4964 195.903 38.8694L189.74 38.5044C182.782 38.4024 175.823 38.3904 168.864 38.4674C155.025 38.7864 142.936 40.3134 129.304 42.1914Z" fill="#0A8BA4"/>
<path d="M155.588 8.01651C157.3 8.43871 160.223 9.05851 161.789 9.59451C169.256 12.7188 186.676 21.0144 192.734 26.0064C194.292 26.7404 197.696 28.1964 198.907 29.1404C204.923 32.8914 209.351 37.2124 214.935 41.4954C210.918 40.8014 206.221 39.8624 202.23 39.3804C199.575 39.3924 198.538 39.4964 195.903 38.8694L189.74 38.5044C182.782 38.4024 175.823 38.3904 168.864 38.4674C168.6 35.9314 157.555 13.3584 155.588 8.01651Z" fill="#0A8BA4"/>
<path d="M155.588 8.01651C157.3 8.43871 160.223 9.05851 161.789 9.59451C161.15 13.7484 171.298 33.0724 173.782 37.8304C178.986 37.7564 184.695 37.4154 189.74 38.5044C182.782 38.4024 175.823 38.3904 168.864 38.4674C168.6 35.9314 157.555 13.3584 155.588 8.01651Z" fill="#046C88"/>
<path d="M198.907 29.1404C204.923 32.8914 209.351 37.2124 214.935 41.4954C210.918 40.8014 206.221 39.8624 202.23 39.3804C201.269 36.3044 198.458 31.0384 198.907 29.1404Z" fill="#0A8BA4"/>
<path d="M192.733 26.0064C194.291 26.7404 197.695 28.1964 198.906 29.1404C198.457 31.0384 201.268 36.3044 202.229 39.3804C199.574 39.3924 198.537 39.4964 195.902 38.8694C197.274 38.3914 196.726 38.8064 197.531 37.5014C196.955 33.9934 194.364 29.3324 192.733 26.0064Z" fill="#046C88"/>
<path d="M65.3476 267.955C64.9316 272.907 65.1726 274.757 63.1316 279.441C56.3646 295.23 37.6686 307.673 20.6436 299.786C6.98657 293.459 5.81657 280.354 8.52457 267.154C12.5916 247.332 24.6606 232.46 37.1146 217.232C39.3606 214.487 41.5874 211.327 44.0874 208.327C45.0794 211.84 44.9636 211.365 45.7496 213.893C50.2536 228.372 62.7786 253.832 65.3476 267.955Z" fill="#0A8BA4"/>
<path d="M294.728 209.643L294.976 210.169C304.655 230.283 333.942 261.221 325.366 286.822C323.27 293.095 318.74 298.263 312.795 301.166C295.876 309.302 279.826 295.112 272.325 281.245C271.606 279.915 269.072 275.644 268.112 274.731C270.344 273.199 292.979 216.531 294.728 209.643Z" fill="#0A8BA4"/>
<path d="M214.892 327.238L215.724 327.183C218.669 328.885 239.115 368.567 242.626 375.163C226.208 376.119 215.251 370.398 201.355 362.4C190.734 356.287 180.251 349.964 169.746 343.653C162.199 348.784 154.461 353.628 146.549 358.175C131.314 366.795 124.783 370.158 107.871 373.816C114.509 358.589 121.272 343.417 128.159 328.302C155.746 338.055 187.777 338.832 214.892 327.238Z" fill="#046C88"/>
<path d="M108.761 319.958L123.21 326.537C120.667 332.605 105.306 369.815 102.989 373.311C100.403 374.125 97.9701 373.275 95.2131 372.704C58.5901 359.281 92.8721 332.522 108.761 319.958Z" fill="#046C88"/>
<path d="M229.701 320.453L230.927 320.528C246.326 331.291 280.104 351.525 254.279 370.138C252.087 371.351 249.03 372.606 246.686 373.65C237.715 357.061 231 341.198 220.601 325.072L229.701 320.453Z" fill="#046C88"/>
<path d="M214.426 124.635C216.957 124.362 219.236 126.179 219.534 128.708C219.832 131.236 218.038 133.532 215.512 133.855C213.855 134.067 212.213 133.373 211.21 132.038C210.207 130.703 209.998 128.933 210.664 127.401C211.329 125.87 212.765 124.814 214.426 124.635Z" fill="#F8FAFA"/>
</svg>
